<svg width="20" height="20" viewBox="0 0 20 20" fill="none" xmlns="http://www.w3.org/2000/svg">
<path d="M14.1666 1.66667H5.83329C4.91663 1.66667 4.16663 2.41667 4.16663 3.33334V5.00001C4.16663 5.91667 4.91663 6.66667 5.83329 6.66667H14.1666C15.0833 6.66667 15.8333 5.91667 15.8333 5.00001V3.33334C15.8333 2.41667 15.0833 1.66667 14.1666 1.66667ZM14.1666 5.00001H5.83329V3.33334H14.1666V5.00001ZM16.6666 18.3333H3.33329C2.41663 18.3333 1.66663 17.5833 1.66663 16.6667V15.8333H18.3333V16.6667C18.3333 17.5833 17.5833 18.3333 16.6666 18.3333ZM15.4416 8.49167C15.175 7.89167 14.575 7.50001 13.9166 7.50001H6.08329C5.42496 7.50001 4.82496 7.89167 4.55829 8.49167L1.66663 15H18.3333L15.4416 8.49167ZM7.91663 13.3333H7.08329C6.84996 13.3333 6.66663 13.15 6.66663 12.9167C6.66663 12.6833 6.84996 12.5 7.08329 12.5H7.91663C8.14996 12.5 8.33329 12.6833 8.33329 12.9167C8.33329 13.15 8.14996 13.3333 7.91663 13.3333ZM7.91663 11.6667H7.08329C6.84996 11.6667 6.66663 11.4833 6.66663 11.25C6.66663 11.0167 6.84996 10.8333 7.08329 10.8333H7.91663C8.14996 10.8333 8.33329 11.0167 8.33329 11.25C8.33329 11.4833 8.14996 11.6667 7.91663 11.6667ZM7.91663 10H7.08329C6.84996 10 6.66663 9.81667 6.66663 9.58334C6.66663 9.35001 6.84996 9.16667 7.08329 9.16667H7.91663C8.14996 9.16667 8.33329 9.35001 8.33329 9.58334C8.33329 9.81667 8.14996 10 7.91663 10ZM10.4166 13.3333H9.58329C9.34996 13.3333 9.16663 13.15 9.16663 12.9167C9.16663 12.6833 9.34996 12.5 9.58329 12.5H10.4166C10.65 12.5 10.8333 12.6833 10.8333 12.9167C10.8333 13.15 10.65 13.3333 10.4166 13.3333ZM10.4166 11.6667H9.58329C9.34996 11.6667 9.16663 11.4833 9.16663 11.25C9.16663 11.0167 9.34996 10.8333 9.58329 10.8333H10.4166C10.65 10.8333 10.8333 11.0167 10.8333 11.25C10.8333 11.4833 10.65 11.6667 10.4166 11.6667ZM10.4166 10H9.58329C9.34996 10 9.16663 9.81667 9.16663 9.58334C9.16663 9.35001 9.34996 9.16667 9.58329 9.16667H10.4166C10.65 9.16667 10.8333 9.35001 10.8333 9.58334C10.8333 9.81667 10.65 10 10.4166 10ZM12.9166 13.3333H12.0833C11.85 13.3333 11.6666 13.15 11.6666 12.9167C11.6666 12.6833 11.85 12.5 12.0833 12.5H12.9166C13.15 12.5 13.3333 12.6833 13.3333 12.9167C13.3333 13.15 13.15 13.3333 12.9166 13.3333ZM12.9166 11.6667H12.0833C11.85 11.6667 11.6666 11.4833 11.6666 11.25C11.6666 11.0167 11.85 10.8333 12.0833 10.8333H12.9166C13.15 10.8333 13.3333 11.0167 13.3333 11.25C13.3333 11.4833 13.15 11.6667 12.9166 11.6667ZM12.9166 10H12.0833C11.85 10 11.6666 9.81667 11.6666 9.58334C11.6666 9.35001 11.85 9.16667 12.0833 9.16667H12.9166C13.15 9.16667 13.3333 9.35001 13.3333 9.58334C13.3333 9.81667 13.15 10 12.9166 10Z" fill="#667085"/>
</svg>
