<svg width="40" height="40" viewBox="0 0 40 40" fill="none" xmlns="http://www.w3.org/2000/svg">
<path d="M11.6666 14.9958C11.6666 14.5375 12.0383 14.1667 12.4958 14.1667H19.1708C19.3907 14.1667 19.6016 14.254 19.7571 14.4095C19.9126 14.565 20 14.7759 20 14.9958C20 15.2157 19.9126 15.4266 19.7571 15.5821C19.6016 15.7376 19.3907 15.825 19.1708 15.825H12.4958C12.2759 15.825 12.065 15.7376 11.9095 15.5821C11.754 15.4266 11.6666 15.2157 11.6666 14.9958ZM11.6666 20C11.6666 19.5417 12.0383 19.1708 12.4958 19.1708H27.5041C27.724 19.1708 27.9349 19.2582 28.0904 19.4137C28.2459 19.5692 28.3333 19.7801 28.3333 20C28.3333 20.2199 28.2459 20.4308 28.0904 20.5863C27.9349 20.7418 27.724 20.8292 27.5041 20.8292H12.4958C12.2759 20.8292 12.065 20.7418 11.9095 20.5863C11.754 20.4308 11.6666 20.2199 11.6666 20ZM12.4958 24.175C12.2759 24.175 12.065 24.2624 11.9095 24.4179C11.754 24.5734 11.6666 24.7843 11.6666 25.0042C11.6666 25.2241 11.754 25.435 11.9095 25.5905C12.065 25.746 12.2759 25.8333 12.4958 25.8333H22.5041C22.724 25.8333 22.9349 25.746 23.0904 25.5905C23.2459 25.435 23.3333 25.2241 23.3333 25.0042C23.3333 24.7843 23.2459 24.5734 23.0904 24.4179C22.9349 24.2624 22.724 24.175 22.5041 24.175H12.4958Z" fill="white"/>
</svg>
